# Blender v2.91.2 OBJ File: ''
# www.blender.org
mtllib civ_well.mtl
g model.002
v -0.062500 -0.437500 0.062500
v 0.000000 -0.437500 0.062500
v 0.000000 -0.437500 0.000000
v -0.062500 -0.437500 0.000000
v 0.062500 -0.437500 0.062500
v 0.062500 -0.437500 0.000000
v 0.000000 -0.437500 -0.062500
v -0.062500 -0.437500 -0.062500
v 0.062500 -0.437500 -0.062500
v -0.125000 -0.500000 0.062500
v -0.125000 -0.500000 0.125000
v -0.125000 -0.437500 0.125000
v -0.125000 -0.437500 0.062500
v -0.062500 -0.500000 0.125000
v -0.062500 -0.437500 0.125000
v 0.000000 -0.437500 0.125000
v 0.000000 -0.500000 0.125000
v 0.062500 -0.437500 0.125000
v 0.062500 -0.500000 0.125000
v 0.125000 -0.500000 0.125000
v 0.125000 -0.500000 0.062500
v 0.125000 -0.437500 0.062500
v 0.125000 -0.437500 0.125000
v -0.125000 -0.187500 0.125000
v -0.062500 -0.187500 0.125000
v -0.062500 -0.187500 0.062500
v -0.125000 -0.187500 0.062500
v -0.125000 -0.250000 0.062500
v -0.125000 -0.250000 0.125000
v -0.062500 -0.250000 0.125000
v 0.000000 -0.187500 0.125000
v 0.000000 -0.187500 0.062500
v -0.062500 -0.250000 0.062500
v 0.000000 -0.250000 0.062500
v 0.000000 -0.250000 0.125000
v 0.062500 -0.187500 0.125000
v 0.062500 -0.187500 0.062500
v 0.062500 -0.250000 0.062500
v 0.062500 -0.250000 0.125000
v 0.125000 -0.187500 0.125000
v 0.125000 -0.187500 0.062500
v 0.125000 -0.250000 0.125000
v 0.125000 -0.250000 0.062500
v -0.125000 -0.437500 0.000000
v -0.125000 -0.500000 0.000000
v 0.125000 -0.437500 0.000000
v 0.125000 -0.500000 0.000000
v -0.062500 -0.187500 0.000000
v -0.125000 -0.187500 0.000000
v -0.125000 -0.250000 0.000000
v -0.062500 -0.250000 0.000000
v 0.000000 -0.250000 0.000000
v 0.062500 -0.250000 0.000000
v 0.125000 -0.187500 0.000000
v 0.062500 -0.187500 0.000000
v 0.125000 -0.250000 0.000000
v -0.062500 -0.125000 0.062500
v 0.000000 -0.125000 0.062500
v 0.000000 -0.125000 0.000000
v -0.062500 -0.125000 0.000000
v 0.062500 -0.125000 0.062500
v 0.062500 -0.125000 0.000000
v -0.125000 -0.437500 -0.062500
v -0.125000 -0.500000 -0.062500
v 0.125000 -0.437500 -0.062500
v 0.125000 -0.500000 -0.062500
v -0.062500 -0.187500 -0.062500
v -0.125000 -0.187500 -0.062500
v -0.125000 -0.250000 -0.062500
v -0.062500 -0.250000 -0.062500
v 0.000000 -0.250000 -0.062500
v 0.062500 -0.250000 -0.062500
v 0.125000 -0.187500 -0.062500
v 0.062500 -0.187500 -0.062500
v 0.125000 -0.250000 -0.062500
v 0.000000 -0.125000 -0.062500
v -0.062500 -0.125000 -0.062500
v 0.000000 -0.187500 -0.062500
v 0.062500 -0.125000 -0.062500
v -0.125000 -0.500000 -0.125000
v -0.125000 -0.437500 -0.125000
v -0.062500 -0.500000 -0.125000
v -0.062500 -0.437500 -0.125000
v 0.000000 -0.437500 -0.125000
v 0.000000 -0.500000 -0.125000
v 0.062500 -0.437500 -0.125000
v 0.062500 -0.500000 -0.125000
v 0.125000 -0.500000 -0.125000
v 0.125000 -0.437500 -0.125000
v -0.062500 -0.187500 -0.125000
v -0.125000 -0.187500 -0.125000
v -0.125000 -0.250000 -0.125000
v -0.062500 -0.250000 -0.125000
v 0.000000 -0.187500 -0.125000
v 0.000000 -0.250000 -0.125000
v 0.062500 -0.187500 -0.125000
v 0.062500 -0.250000 -0.125000
v 0.125000 -0.187500 -0.125000
v 0.125000 -0.250000 -0.125000
v -0.062500 -0.375000 0.062500
v -0.062500 -0.375000 0.125000
v -0.125000 -0.375000 0.125000
v -0.125000 -0.375000 0.062500
v 0.125000 -0.375000 0.062500
v 0.125000 -0.375000 0.125000
v 0.062500 -0.375000 0.125000
v 0.062500 -0.375000 0.062500
v -0.062500 -0.312500 0.062500
v -0.062500 -0.312500 0.125000
v -0.125000 -0.312500 0.125000
v -0.125000 -0.312500 0.062500
v 0.125000 -0.312500 0.062500
v 0.125000 -0.312500 0.125000
v 0.062500 -0.312500 0.125000
v 0.062500 -0.312500 0.062500
v -0.062500 -0.375000 -0.125000
v -0.062500 -0.375000 -0.062500
v -0.125000 -0.375000 -0.062500
v -0.125000 -0.375000 -0.125000
v 0.125000 -0.375000 -0.125000
v 0.125000 -0.375000 -0.062500
v 0.062500 -0.375000 -0.062500
v 0.062500 -0.375000 -0.125000
v -0.062500 -0.312500 -0.125000
v -0.062500 -0.312500 -0.062500
v -0.125000 -0.312500 -0.062500
v -0.125000 -0.312500 -0.125000
v 0.125000 -0.312500 -0.125000
v 0.125000 -0.312500 -0.062500
v 0.062500 -0.312500 -0.062500
v 0.062500 -0.312500 -0.125000
vt 0.000000 0.000000
vt 1.000000 0.000000
vt 1.000000 1.000000
vt 0.000000 1.000000
vt 0.000000 0.000000
vt 1.000000 0.000000
vt 1.000000 1.000000
vt 0.000000 1.000000
vt 0.000000 0.000000
vt 1.000000 0.000000
vt 1.000000 1.000000
vt 0.000000 1.000000
vt 0.000000 0.000000
vt 1.000000 0.000000
vt 1.000000 1.000000
vt 0.000000 1.000000
vt 0.000000 0.000000
vt 1.000000 0.000000
vt 1.000000 1.000000
vt 0.000000 1.000000
vt 0.000000 0.000000
vt 1.000000 0.000000
vt 1.000000 1.000000
vt 0.000000 1.000000
vt 0.000000 0.000000
vt 1.000000 0.000000
vt 1.000000 1.000000
vt 0.000000 1.000000
vt 0.000000 0.000000
vt 1.000000 0.000000
vt 1.000000 1.000000
vt 0.000000 1.000000
vt 0.000000 0.000000
vt 1.000000 0.000000
vt 1.000000 1.000000
vt 0.000000 1.000000
vt 0.000000 0.000000
vt 1.000000 0.000000
vt 1.000000 1.000000
vt 0.000000 1.000000
vt 0.000000 0.000000
vt 1.000000 0.000000
vt 1.000000 1.000000
vt 0.000000 1.000000
vt 0.000000 0.000000
vt 1.000000 0.000000
vt 1.000000 1.000000
vt 0.000000 1.000000
vt 0.000000 0.000000
vt 1.000000 0.000000
vt 1.000000 1.000000
vt 0.000000 1.000000
vt 0.000000 0.000000
vt 1.000000 0.000000
vt 1.000000 1.000000
vt 0.000000 0.000000
vt 1.000000 0.000000
vt 1.000000 1.000000
vt 0.000000 1.000000
vt 0.000000 0.000000
vt 1.000000 0.000000
vt 1.000000 1.000000
vt 0.000000 1.000000
vt 0.000000 0.000000
vt 1.000000 0.000000
vt 1.000000 1.000000
vt 0.000000 1.000000
vt 0.000000 0.000000
vt 1.000000 0.000000
vt 1.000000 1.000000
vt 0.000000 1.000000
vt 0.000000 0.000000
vt 1.000000 0.000000
vt 1.000000 1.000000
vt 0.000000 1.000000
vt 0.000000 0.000000
vt 1.000000 0.000000
vt 1.000000 1.000000
vt 0.000000 1.000000
vt 0.000000 0.000000
vt 1.000000 0.000000
vt 1.000000 1.000000
vt 0.000000 1.000000
vt 0.000000 0.000000
vt 1.000000 0.000000
vt 1.000000 1.000000
vt 0.000000 1.000000
vt 0.000000 0.000000
vt 1.000000 0.000000
vt 0.000000 1.000000
vt 0.000000 0.000000
vt 1.000000 0.000000
vt 1.000000 1.000000
vt 0.000000 1.000000
vt 0.000000 0.000000
vt 1.000000 0.000000
vt 1.000000 1.000000
vt 0.000000 1.000000
vt 0.000000 0.000000
vt 1.000000 0.000000
vt 1.000000 1.000000
vt 0.000000 0.000000
vt 1.000000 0.000000
vt 1.000000 1.000000
vt 0.000000 1.000000
vt 0.000000 0.000000
vt 1.000000 0.000000
vt 0.000000 1.000000
vt 0.000000 0.000000
vt 1.000000 0.000000
vt 1.000000 1.000000
vt 0.000000 1.000000
vt 0.000000 0.000000
vt 1.000000 0.000000
vt 1.000000 1.000000
vt 0.000000 1.000000
vt 1.000000 0.000000
vt 1.000000 1.000000
vt 0.000000 0.000000
vt 1.000000 0.000000
vt 1.000000 1.000000
vt 0.000000 1.000000
vt 0.000000 0.000000
vt 1.000000 0.000000
vt 1.000000 1.000000
vt 0.000000 1.000000
vt 0.000000 0.000000
vt 1.000000 0.000000
vt 1.000000 1.000000
vt 0.000000 1.000000
vt 0.000000 0.000000
vt 1.000000 0.000000
vt 1.000000 1.000000
vt 0.000000 1.000000
vt 0.000000 0.000000
vt 0.000000 1.000000
vt 0.000000 0.000000
vt 1.000000 0.000000
vt 1.000000 1.000000
vt 0.000000 1.000000
vt 0.000000 0.000000
vt 1.000000 1.000000
vt 0.000000 0.000000
vt 1.000000 0.000000
vt 1.000000 1.000000
vt 0.000000 1.000000
vt 0.000000 0.000000
vt 1.000000 0.000000
vt 1.000000 1.000000
vt 0.000000 1.000000
vt 1.000000 0.000000
vt 0.000000 1.000000
vt 0.000000 0.000000
vt 1.000000 0.000000
vt 1.000000 1.000000
vt 0.000000 1.000000
vt 0.000000 0.000000
vt 1.000000 0.000000
vt 1.000000 1.000000
vt 0.000000 1.000000
vt 0.000000 0.000000
vt 1.000000 0.000000
vt 1.000000 1.000000
vt 0.000000 0.000000
vt 1.000000 0.000000
vt 1.000000 1.000000
vt 0.000000 1.000000
vt 0.000000 0.000000
vt 1.000000 0.000000
vt 0.000000 1.000000
vt 0.000000 0.000000
vt 1.000000 0.000000
vt 1.000000 1.000000
vt 0.000000 1.000000
vt 0.000000 0.000000
vt 1.000000 0.000000
vt 1.000000 1.000000
vt 0.000000 1.000000
vt 1.000000 0.000000
vt 1.000000 1.000000
vt 0.000000 0.000000
vt 1.000000 0.000000
vt 1.000000 1.000000
vt 0.000000 1.000000
vt 0.000000 0.000000
vt 1.000000 0.000000
vt 1.000000 1.000000
vt 0.000000 1.000000
vt 0.000000 0.000000
vt 1.000000 0.000000
vt 1.000000 1.000000
vt 0.000000 1.000000
vt 0.000000 0.000000
vt 1.000000 0.000000
vt 1.000000 1.000000
vt 0.000000 1.000000
vt 0.000000 0.000000
vt 0.000000 1.000000
vt 0.000000 0.000000
vt 1.000000 0.000000
vt 1.000000 1.000000
vt 0.000000 1.000000
vt 0.000000 0.000000
vt 1.000000 1.000000
vt 0.000000 0.000000
vt 1.000000 0.000000
vt 1.000000 1.000000
vt 0.000000 1.000000
vt 0.000000 0.000000
vt 1.000000 0.000000
vt 1.000000 1.000000
vt 1.000000 0.000000
vt 0.000000 1.000000
vt 0.000000 0.000000
vt 1.000000 0.000000
vt 0.000000 1.000000
vt 0.000000 0.000000
vt 1.000000 0.000000
vt 1.000000 1.000000
vt 0.000000 1.000000
vt 0.000000 0.000000
vt 1.000000 0.000000
vt 1.000000 1.000000
vt 0.000000 1.000000
vt 0.000000 0.000000
vt 1.000000 0.000000
vt 1.000000 1.000000
vt 0.000000 0.000000
vt 1.000000 0.000000
vt 1.000000 1.000000
vt 0.000000 1.000000
vt 0.000000 0.000000
vt 1.000000 0.000000
vt 1.000000 1.000000
vt 0.000000 0.000000
vt 1.000000 0.000000
vt 0.000000 1.000000
vt 0.000000 0.000000
vt 1.000000 0.000000
vt 1.000000 1.000000
vt 0.000000 1.000000
vt 0.000000 0.000000
vt 1.000000 0.000000
vt 0.000000 1.000000
vt 0.000000 0.000000
vt 1.000000 1.000000
vt 0.000000 1.000000
vt 0.000000 0.000000
vt 1.000000 0.000000
vt 1.000000 1.000000
vt 0.000000 0.000000
vt 1.000000 0.000000
vt 1.000000 1.000000
vt 0.000000 1.000000
vt 1.000000 1.000000
vt 1.000000 0.000000
vt 1.000000 1.000000
vt 0.000000 1.000000
vt 0.000000 0.000000
vt 1.000000 0.000000
vt 0.000000 1.000000
vt 1.000000 1.000000
vt 1.000000 0.000000
vt 1.000000 1.000000
vt 0.000000 1.000000
vt 0.000000 0.000000
vt 0.000000 1.000000
vt 1.000000 0.000000
vt 1.000000 1.000000
vt 0.000000 0.000000
vt 1.000000 0.000000
vt 0.000000 1.000000
vt 0.000000 0.000000
vt 0.000000 1.000000
vt 1.000000 1.000000
vt 0.000000 1.000000
vt 1.000000 0.000000
vt 1.000000 1.000000
vt 0.000000 1.000000
vt 1.000000 0.000000
vt 1.000000 1.000000
vt 0.000000 1.000000
vt 0.000000 0.000000
vt 1.000000 0.000000
vt 1.000000 1.000000
vt 0.000000 1.000000
vt 0.000000 0.000000
vt 1.000000 1.000000
vt 0.000000 1.000000
vt 1.000000 1.000000
vt 0.000000 1.000000
vt 0.000000 0.000000
vt 1.000000 1.000000
vt 0.000000 1.000000
vt 0.000000 0.000000
vt 1.000000 0.000000
vt 1.000000 1.000000
vt 0.000000 1.000000
vt 0.000000 0.000000
vt 1.000000 0.000000
vt 1.000000 1.000000
vt 0.000000 1.000000
vt 0.000000 0.000000
vt 1.000000 0.000000
vt 1.000000 1.000000
vt 0.000000 1.000000
vt 0.000000 0.000000
vt 1.000000 0.000000
vt 1.000000 1.000000
vt 0.000000 1.000000
vt 0.000000 0.000000
vt 1.000000 0.000000
vt 1.000000 1.000000
vt 0.000000 1.000000
vt 0.000000 0.000000
vt 1.000000 0.000000
vt 1.000000 1.000000
vt 0.000000 1.000000
vt 0.000000 0.000000
vt 1.000000 0.000000
vt 1.000000 1.000000
vt 0.000000 1.000000
vt 0.000000 0.000000
vt 1.000000 0.000000
vt 1.000000 1.000000
vt 0.000000 1.000000
vt 0.000000 0.000000
vt 1.000000 0.000000
vt 1.000000 1.000000
vt 0.000000 1.000000
vt 0.000000 0.000000
vt 1.000000 0.000000
vt 0.000000 0.000000
vt 1.000000 0.000000
vt 1.000000 1.000000
vt 0.000000 0.000000
vt 1.000000 0.000000
vt 1.000000 1.000000
vt 0.000000 0.000000
vt 1.000000 0.000000
vt 1.000000 1.000000
vt 0.000000 1.000000
vt 0.000000 0.000000
vt 1.000000 0.000000
vt 0.000000 1.000000
vt 0.000000 0.000000
vt 1.000000 0.000000
vt 0.000000 0.000000
vt 1.000000 0.000000
vt 0.000000 1.000000
vt 0.000000 0.000000
vt 1.000000 0.000000
vt 1.000000 1.000000
vt 0.000000 1.000000
vt 1.000000 0.000000
vt 1.000000 1.000000
vt 0.000000 1.000000
vt 0.000000 0.000000
vt 1.000000 0.000000
vt 1.000000 1.000000
vt 0.000000 1.000000
vt 0.000000 0.000000
vt 1.000000 0.000000
vt 1.000000 1.000000
vt 0.000000 1.000000
vt 0.000000 0.000000
vt 1.000000 0.000000
vt 1.000000 1.000000
vt 0.000000 1.000000
vt 0.000000 0.000000
vt 1.000000 0.000000
vt 1.000000 1.000000
vt 0.000000 1.000000
vt 0.000000 0.000000
vt 1.000000 1.000000
vt 0.000000 1.000000
vt 0.000000 0.000000
vt 1.000000 0.000000
vt 1.000000 1.000000
vt 0.000000 1.000000
vt 0.000000 0.000000
vt 1.000000 0.000000
vt 1.000000 1.000000
vt 0.000000 1.000000
vt 0.000000 0.000000
vt 1.000000 0.000000
vt 1.000000 1.000000
vt 0.000000 1.000000
vt 0.000000 0.000000
vt 1.000000 0.000000
vt 1.000000 1.000000
vt 0.000000 1.000000
vt 0.000000 0.000000
vt 1.000000 0.000000
vt 1.000000 1.000000
vt 0.000000 1.000000
vt 0.000000 0.000000
vt 1.000000 0.000000
vt 1.000000 1.000000
vt 0.000000 1.000000
vt 0.000000 0.000000
vt 1.000000 0.000000
vt 1.000000 1.000000
vt 0.000000 1.000000
vt 0.000000 0.000000
vt 1.000000 0.000000
vt 1.000000 1.000000
vt 0.000000 1.000000
vt 0.000000 0.000000
vt 1.000000 0.000000
vt 1.000000 1.000000
vt 0.000000 1.000000
vt 0.000000 0.000000
vt 1.000000 0.000000
vt 1.000000 1.000000
vt 0.000000 1.000000
vt 0.000000 0.000000
vt 1.000000 0.000000
vt 1.000000 1.000000
vt 0.000000 0.000000
vt 1.000000 0.000000
vt 1.000000 1.000000
vt 0.000000 1.000000
vt 0.000000 0.000000
vt 1.000000 0.000000
vt 1.000000 1.000000
vt 0.000000 1.000000
vt 0.000000 0.000000
vt 1.000000 0.000000
vt 1.000000 1.000000
vt 0.000000 1.000000
vt 0.000000 0.000000
vt 1.000000 0.000000
vt 1.000000 1.000000
vt 0.000000 1.000000
vt 0.000000 0.000000
vt 1.000000 0.000000
vt 0.000000 1.000000
vt 0.000000 0.000000
vt 1.000000 0.000000
vt 1.000000 1.000000
vt 0.000000 1.000000
vt 0.000000 0.000000
vt 1.000000 0.000000
vt 1.000000 1.000000
vt 0.000000 1.000000
vn 0.0000 1.0000 0.0000
vn -1.0000 0.0000 0.0000
vn 0.0000 0.0000 1.0000
vn 1.0000 0.0000 0.0000
vn 0.0000 -1.0000 -0.0000
vn 0.0000 0.0000 -1.0000
usemtl civ_white.png^[colorize:#7aa3e6:230.001
s 1
f 1/1/1 2/2/1 3/3/1 4/4/1
f 2/5/1 5/6/1 6/7/1 3/8/1
f 4/9/1 3/10/1 7/11/1 8/12/1
f 3/13/1 6/14/1 9/15/1 7/16/1
usemtl civ_white.png^[colorize:#9499a1:230.002
f 10/17/2 11/18/2 12/19/2 13/20/2
f 11/21/3 14/22/3 15/23/3 12/24/3
f 15/25/1 16/26/1 2/27/1 1/28/1
f 14/29/3 17/30/3 16/31/3 15/32/3
f 16/33/1 18/34/1 5/35/1 2/36/1
f 17/37/3 19/38/3 18/39/3 16/40/3
f 20/41/4 21/42/4 22/43/4 23/44/4
f 19/45/3 20/46/3 23/47/3 18/48/3
f 24/49/1 25/50/1 26/51/1 27/52/1
f 28/53/2 29/54/2 24/55/2 27/52/2
f 29/56/3 30/57/3 25/58/3 24/59/3
f 25/60/1 31/61/1 32/62/1 26/63/1
f 33/64/5 34/65/5 35/66/5 30/67/5
f 30/68/3 35/69/3 31/70/3 25/71/3
f 31/72/1 36/73/1 37/74/1 32/75/1
f 34/76/5 38/77/5 39/78/5 35/79/5
f 35/80/3 39/81/3 36/82/3 31/83/3
f 36/84/1 40/85/1 41/86/1 37/87/1
f 42/88/4 43/89/4 41/86/4 40/90/4
f 39/91/3 42/92/3 40/93/3 36/94/3
f 13/95/1 1/96/1 4/97/1 44/98/1
f 45/99/2 10/100/2 13/101/2 44/98/2
f 5/102/1 22/103/1 46/104/1 6/105/1
f 21/106/4 47/107/4 46/104/4 22/108/4
f 27/109/1 26/110/1 48/111/1 49/112/1
f 50/113/5 51/114/5 33/115/5 28/116/5
f 50/113/2 28/117/2 27/118/2 49/112/2
f 51/119/5 52/120/5 34/121/5 33/122/5
f 52/123/5 53/124/5 38/125/5 34/126/5
f 37/127/1 41/128/1 54/129/1 55/130/1
f 53/131/5 56/132/5 43/133/5 38/134/5
f 43/135/4 56/132/4 54/129/4 41/136/4
f 57/137/1 58/138/1 59/139/1 60/140/1
f 48/141/2 26/110/2 57/142/2 60/140/2
f 26/143/3 32/144/3 58/145/3 57/146/3
f 58/147/1 61/148/1 62/149/1 59/150/1
f 37/127/4 55/151/4 62/149/4 61/152/4
f 32/153/3 37/154/3 61/155/3 58/156/3
f 44/157/1 4/158/1 8/159/1 63/160/1
f 64/161/2 45/162/2 44/163/2 63/160/2
f 6/164/1 46/165/1 65/166/1 9/167/1
f 47/168/4 66/169/4 65/166/4 46/170/4
f 49/171/1 48/172/1 67/173/1 68/174/1
f 69/175/5 70/176/5 51/177/5 50/178/5
f 69/175/2 50/179/2 49/180/2 68/174/2
f 70/181/5 71/182/5 52/183/5 51/184/5
f 71/185/5 72/186/5 53/187/5 52/188/5
f 55/189/1 54/190/1 73/191/1 74/192/1
f 72/193/5 75/194/5 56/195/5 53/196/5
f 56/197/4 75/194/4 73/191/4 54/198/4
f 60/199/1 59/200/1 76/201/1 77/202/1
f 67/203/2 48/172/2 60/204/2 77/202/2
f 78/205/6 67/206/6 77/207/6 76/208/6
f 59/209/1 62/210/1 79/211/1 76/208/1
f 55/189/4 74/212/4 79/211/4 62/213/4
f 74/214/6 78/215/6 76/201/6 79/216/6
f 80/217/2 64/218/2 63/219/2 81/220/2
f 82/221/6 80/222/6 81/223/6 83/224/6
f 8/225/1 7/226/1 84/227/1 83/224/1
f 85/228/6 82/229/6 83/230/6 84/231/6
f 7/232/1 9/233/1 86/234/1 84/231/1
f 87/235/6 85/236/6 84/227/6 86/237/6
f 66/238/4 88/239/4 89/240/4 65/241/4
f 88/242/6 87/243/6 86/234/6 89/244/6
f 68/245/1 67/206/1 90/246/1 91/247/1
f 92/248/2 69/249/2 68/250/2 91/247/2
f 93/251/6 92/252/6 91/253/6 90/254/6
f 67/203/1 78/215/1 94/255/1 90/254/1
f 93/251/5 95/256/5 71/257/5 70/258/5
f 95/259/6 93/260/6 90/246/6 94/261/6
f 78/205/1 74/212/1 96/262/1 94/261/1
f 95/259/5 97/263/5 72/264/5 71/265/5
f 97/266/6 95/256/6 94/255/6 96/267/6
f 74/214/1 73/268/1 98/269/1 96/267/1
f 75/270/4 99/271/4 98/269/4 73/272/4
f 99/273/6 97/263/6 96/262/6 98/274/6
usemtl civ_wood.png.002
f 15/25/4 1/96/4 100/275/4 101/276/4
f 13/95/2 12/277/2 102/278/2 103/279/2
f 1/1/6 13/280/6 103/281/6 100/282/6
f 12/283/3 15/284/3 101/285/3 102/286/3
f 23/287/4 22/103/4 104/288/4 105/289/4
f 5/102/2 18/34/2 106/290/2 107/291/2
f 22/292/6 5/6/6 107/293/6 104/294/6
f 18/295/3 23/296/3 105/297/3 106/298/3
f 101/299/4 100/300/4 108/301/4 109/302/4
f 103/303/2 102/304/2 110/305/2 111/306/2
f 100/307/6 103/308/6 111/309/6 108/310/6
f 102/311/3 101/312/3 109/313/3 110/314/3
f 105/315/4 104/316/4 112/317/4 113/318/4
f 107/319/2 106/320/2 114/321/2 115/322/2
f 104/323/6 107/324/6 115/325/6 112/326/6
f 106/327/3 105/328/3 113/329/3 114/330/3
f 109/331/4 108/332/4 33/115/4 30/67/4
f 111/333/2 110/334/2 29/335/2 28/116/2
f 108/336/6 111/337/6 28/338/6 33/122/6
f 110/339/3 109/340/3 30/341/3 29/342/3
f 113/343/4 112/344/4 43/133/4 42/345/4
f 115/346/2 114/347/2 39/78/2 38/134/2
f 112/348/6 115/349/6 38/125/6 43/350/6
f 114/351/3 113/352/3 42/353/3 39/354/3
f 8/225/4 83/355/4 116/356/4 117/357/4
f 81/358/2 63/359/2 118/360/2 119/361/2
f 83/362/6 81/363/6 119/364/6 116/365/6
f 63/366/3 8/367/3 117/368/3 118/369/3
f 65/370/4 89/371/4 120/372/4 121/373/4
f 86/374/2 9/233/2 122/375/2 123/376/2
f 89/377/6 86/378/6 123/379/6 120/380/6
f 9/381/3 65/382/3 121/383/3 122/384/3
f 117/385/4 116/386/4 124/387/4 125/388/4
f 119/389/2 118/390/2 126/391/2 127/392/2
f 116/393/6 119/394/6 127/395/6 124/396/6
f 118/397/3 117/398/3 125/399/3 126/400/3
f 121/401/4 120/402/4 128/403/4 129/404/4
f 123/405/2 122/406/2 130/407/2 131/408/2
f 120/409/6 123/410/6 131/411/6 128/412/6
f 122/413/3 121/414/3 129/415/3 130/416/3
f 125/417/4 124/418/4 93/419/4 70/258/4
f 127/420/2 126/421/2 69/422/2 92/423/2
f 124/424/6 127/425/6 92/426/6 93/427/6
f 126/428/3 125/429/3 70/430/3 69/431/3
f 129/432/4 128/433/4 99/434/4 75/435/4
f 131/436/2 130/437/2 72/264/2 97/438/2
f 128/439/6 131/440/6 97/441/6 99/442/6
f 130/443/3 129/444/3 75/445/3 72/446/3
