# Blender v2.91.2 OBJ File: ''
# www.blender.org
mtllib ohno.mtl
g model
v -0.250000 -0.437500 0.000000
v -0.187500 -0.437500 0.000000
v -0.187500 -0.437500 -0.062500
v -0.250000 -0.437500 -0.062500
v -0.250000 -0.500000 -0.062500
v -0.250000 -0.500000 0.000000
v -0.187500 -0.500000 -0.062500
v -0.187500 -0.500000 0.000000
v -0.062500 -0.437500 0.000000
v 0.000000 -0.437500 0.000000
v 0.000000 -0.437500 -0.062500
v -0.062500 -0.437500 -0.062500
v 0.000000 -0.500000 -0.062500
v -0.062500 -0.500000 -0.062500
v -0.062500 -0.500000 0.000000
v 0.000000 -0.500000 0.000000
v -0.125000 -0.437500 0.000000
v -0.125000 -0.437500 -0.062500
v -0.125000 -0.500000 -0.062500
v -0.125000 -0.500000 0.000000
v 0.062500 -0.437500 0.000000
v 0.062500 -0.437500 -0.062500
v 0.062500 -0.500000 -0.062500
v 0.062500 -0.500000 0.000000
v 0.125000 -0.437500 0.000000
v 0.187500 -0.437500 0.000000
v 0.187500 -0.437500 -0.062500
v 0.125000 -0.437500 -0.062500
v 0.187500 -0.500000 0.000000
v 0.187500 -0.500000 -0.062500
v 0.125000 -0.500000 -0.062500
v 0.125000 -0.500000 0.000000
vt 0.000000 0.000000
vt 1.000000 0.000000
vt 1.000000 1.000000
vt 0.000000 1.000000
vt 0.000000 0.000000
vt 1.000000 0.000000
vt 1.000000 1.000000
vt 0.000000 0.000000
vt 1.000000 0.000000
vt 1.000000 1.000000
vt 0.000000 1.000000
vt 0.000000 0.000000
vt 1.000000 0.000000
vt 1.000000 1.000000
vt 0.000000 1.000000
vt 0.000000 0.000000
vt 1.000000 0.000000
vt 1.000000 1.000000
vt 0.000000 1.000000
vt 0.000000 0.000000
vt 1.000000 0.000000
vt 1.000000 1.000000
vt 0.000000 1.000000
vt 0.000000 0.000000
vt 1.000000 0.000000
vt 1.000000 1.000000
vt 0.000000 1.000000
vt 0.000000 0.000000
vt 1.000000 0.000000
vt 0.000000 1.000000
vt 0.000000 0.000000
vt 1.000000 0.000000
vt 1.000000 1.000000
vt 0.000000 0.000000
vt 1.000000 0.000000
vt 1.000000 1.000000
vt 0.000000 1.000000
vt 0.000000 0.000000
vt 1.000000 0.000000
vt 1.000000 1.000000
vt 0.000000 0.000000
vt 1.000000 0.000000
vt 0.000000 1.000000
vt 0.000000 0.000000
vt 1.000000 0.000000
vt 1.000000 1.000000
vt 0.000000 1.000000
vt 0.000000 0.000000
vt 1.000000 0.000000
vt 1.000000 1.000000
vt 0.000000 1.000000
vt 0.000000 0.000000
vt 1.000000 0.000000
vt 0.000000 1.000000
vt 0.000000 0.000000
vt 1.000000 0.000000
vt 1.000000 1.000000
vt 0.000000 1.000000
vt 0.000000 0.000000
vt 1.000000 0.000000
vt 1.000000 1.000000
vt 0.000000 1.000000
vt 0.000000 0.000000
vt 1.000000 0.000000
vt 0.000000 0.000000
vt 1.000000 0.000000
vt 0.000000 0.000000
vt 1.000000 0.000000
vt 1.000000 1.000000
vt 0.000000 1.000000
vt 0.000000 0.000000
vt 1.000000 0.000000
vt 0.000000 0.000000
vt 1.000000 0.000000
vt 0.000000 0.000000
vt 1.000000 0.000000
vt 1.000000 1.000000
vt 0.000000 1.000000
vn 0.0000 1.0000 0.0000
vn -1.0000 0.0000 0.0000
vn 0.0000 0.0000 -1.0000
vn 0.0000 0.0000 1.0000
vn 1.0000 0.0000 0.0000
usemtl civ_white.png^[colorize:#424242:230
s 1
f 1/1/1 2/2/1 3/3/1 4/4/1
f 5/5/2 6/6/2 1/7/2 4/4/2
f 7/8/3 5/9/3 4/10/3 3/11/3
f 6/12/4 8/13/4 2/14/4 1/15/4
usemtl civ_white.png^[colorize:#ffd21c:230
f 9/16/1 10/17/1 11/18/1 12/19/1
f 13/20/3 14/21/3 12/22/3 11/23/3
f 15/24/4 16/25/4 10/26/4 9/27/4
usemtl civ_white.png^[colorize:#7aa3e6:230
f 10/38/1 21/39/1 22/40/1 11/23/1
f 23/41/3 13/42/3 11/18/3 22/43/3
f 16/44/4 24/45/4 21/46/4 10/47/4
usemtl civ_white.png^[colorize:#315721:230
f 25/48/1 26/49/1 27/50/1 28/51/1
f 29/52/5 30/53/5 27/50/5 26/54/5
f 30/55/3 31/56/3 28/57/3 27/58/3
f 32/59/4 29/60/4 26/61/4 25/62/4
usemtl civ_white.png^[colorize:#2b72de:230
f 2/71/1 17/72/1 18/33/1 3/11/1
f 19/73/3 7/74/3 3/3/3 18/30/3
f 8/75/4 20/76/4 17/77/4 2/78/4
usemtl civ_white.png^[colorize:#000000:230
f 21/63/1 25/64/1 28/57/1 22/43/1
f 31/65/3 23/66/3 22/40/3 28/51/3
f 24/67/4 32/68/4 25/69/4 21/70/4
usemtl civ_white.png^[colorize:#4a240d:230
f 17/28/1 9/29/1 12/22/1 18/30/1
f 14/31/3 19/32/3 18/33/3 12/19/3
f 20/34/4 15/35/4 9/36/4 17/37/4

