# Blender v2.91.2 OBJ File: ''
# www.blender.org
mtllib tester.mtl
o model
v 0.000000 0.000000 -0.333333
v 0.000000 0.000000 0.000000
v 0.000000 0.333333 0.000000
v 0.000000 0.333333 -0.333333
v 0.333333 0.000000 0.000000
v 0.333333 0.333333 0.000000
v 0.666667 0.333333 0.000000
v 0.666667 0.333333 -0.333333
v 0.333333 0.333333 -0.333333
v 0.666667 0.000000 -0.333333
v 0.333333 0.000000 -0.333333
v 0.666667 0.000000 0.000000
v 1.000000 0.000000 0.000000
v 1.000000 0.000000 -0.333333
v 1.000000 0.333333 -0.333333
v 1.000000 0.333333 0.000000
v 0.333333 0.666667 -0.333333
v 0.333333 0.666667 0.000000
v 0.000000 0.666667 0.000000
v 0.000000 0.666667 -0.333333
v 1.000000 0.666667 -0.333333
v 1.000000 0.666667 0.000000
v 0.666667 0.666667 0.000000
v 0.666667 0.666667 -0.333333
v 0.000000 1.000000 0.000000
v 0.333333 1.000000 0.000000
v 0.333333 1.000000 -0.333333
v 0.000000 1.000000 -0.333333
v 0.666667 1.000000 0.000000
v 0.666667 1.000000 -0.333333
v 1.000000 1.000000 0.000000
v 1.000000 1.000000 -0.333333
v 0.333333 0.333333 -0.666667
v 0.000000 0.333333 -0.666667
v 0.333333 0.000000 -0.666667
v 0.000000 0.000000 -0.666667
v 1.000000 0.333333 -0.666667
v 0.666667 0.333333 -0.666667
v 1.000000 0.000000 -0.666667
v 0.666667 0.000000 -0.666667
v 0.333333 1.000000 -0.666667
v 0.000000 1.000000 -0.666667
v 0.000000 0.666667 -0.666667
v 0.333333 0.666667 -0.666667
v 1.000000 1.000000 -0.666667
v 0.666667 1.000000 -0.666667
v 0.666667 0.666667 -0.666667
v 1.000000 0.666667 -0.666667
v 0.000000 0.000000 -1.000000
v 0.000000 0.333333 -1.000000
v 0.333333 0.000000 -1.000000
v 0.333333 0.333333 -1.000000
v 0.666667 0.333333 -1.000000
v 0.666667 0.000000 -1.000000
v 1.000000 0.000000 -1.000000
v 1.000000 0.333333 -1.000000
v 0.333333 0.666667 -1.000000
v 0.000000 0.666667 -1.000000
v 1.000000 0.666667 -1.000000
v 0.666667 0.666667 -1.000000
v 0.333333 1.000000 -1.000000
v 0.000000 1.000000 -1.000000
v 0.666667 1.000000 -1.000000
v 1.000000 1.000000 -1.000000
vt 0.000000 0.000000
vt 1.000000 0.000000
vt 1.000000 1.000000
vt 0.000000 1.000000
vt 0.000000 0.000000
vt 1.000000 0.000000
vt 1.000000 1.000000
vt 0.000000 1.000000
vt 0.000000 0.000000
vt 1.000000 0.000000
vt 1.000000 1.000000
vt 0.000000 1.000000
vt 0.000000 0.000000
vt 1.000000 0.000000
vt 1.000000 1.000000
vt 0.000000 1.000000
vt 0.000000 0.000000
vt 1.000000 0.000000
vt 1.000000 1.000000
vt 0.000000 1.000000
vt 0.000000 0.000000
vt 1.000000 0.000000
vt 1.000000 1.000000
vt 0.000000 1.000000
vt 0.000000 0.000000
vt 1.000000 0.000000
vt 1.000000 1.000000
vt 0.000000 1.000000
vt 1.000000 0.000000
vt 1.000000 1.000000
vt 0.000000 1.000000
vt 0.000000 0.000000
vt 1.000000 0.000000
vt 1.000000 1.000000
vt 0.000000 1.000000
vt 0.000000 0.000000
vt 1.000000 0.000000
vt 1.000000 1.000000
vt 0.000000 1.000000
vt 0.000000 0.000000
vt 1.000000 0.000000
vt 1.000000 1.000000
vt 0.000000 1.000000
vt 0.000000 0.000000
vt 1.000000 0.000000
vt 1.000000 1.000000
vt 0.000000 1.000000
vt 0.000000 0.000000
vt 1.000000 1.000000
vt 0.000000 1.000000
vt 0.000000 0.000000
vt 1.000000 0.000000
vt 1.000000 1.000000
vt 0.000000 1.000000
vt 0.000000 0.000000
vt 1.000000 0.000000
vt 1.000000 1.000000
vt 0.000000 1.000000
vt 0.000000 0.000000
vt 1.000000 0.000000
vt 1.000000 1.000000
vt 0.000000 1.000000
vt 0.000000 0.000000
vt 1.000000 0.000000
vt 1.000000 1.000000
vt 0.000000 0.000000
vt 1.000000 0.000000
vt 1.000000 1.000000
vt 0.000000 1.000000
vt 0.000000 0.000000
vt 1.000000 0.000000
vt 1.000000 1.000000
vt 0.000000 1.000000
vt 0.000000 0.000000
vt 1.000000 0.000000
vt 0.000000 0.000000
vt 1.000000 0.000000
vt 0.000000 1.000000
vt 0.000000 0.000000
vt 1.000000 0.000000
vt 1.000000 1.000000
vt 0.000000 1.000000
vt 0.000000 0.000000
vt 1.000000 0.000000
vt 1.000000 1.000000
vt 0.000000 0.000000
vt 1.000000 0.000000
vt 0.000000 1.000000
vt 0.000000 0.000000
vt 1.000000 0.000000
vt 1.000000 1.000000
vt 0.000000 1.000000
vt 1.000000 1.000000
vt 0.000000 1.000000
vt 0.000000 0.000000
vt 1.000000 0.000000
vt 0.000000 0.000000
vt 1.000000 0.000000
vt 1.000000 1.000000
vt 1.000000 1.000000
vt 0.000000 1.000000
vt 0.000000 0.000000
vt 1.000000 0.000000
vt 0.000000 1.000000
vt 0.000000 0.000000
vt 1.000000 0.000000
vt 0.000000 0.000000
vt 1.000000 0.000000
vt 1.000000 1.000000
vt 0.000000 1.000000
vt 0.000000 0.000000
vt 1.000000 0.000000
vt 1.000000 0.000000
vt 1.000000 1.000000
vt 0.000000 0.000000
vt 1.000000 0.000000
vt 1.000000 1.000000
vt 0.000000 1.000000
vt 0.000000 0.000000
vt 1.000000 0.000000
vt 0.000000 0.000000
vt 0.000000 1.000000
vt 0.000000 0.000000
vt 1.000000 0.000000
vt 1.000000 1.000000
vt 0.000000 1.000000
vt 0.000000 0.000000
vt 1.000000 0.000000
vt 1.000000 1.000000
vt 0.000000 1.000000
vt 0.000000 0.000000
vt 1.000000 0.000000
vt 1.000000 1.000000
vt 0.000000 0.000000
vt 1.000000 0.000000
vt 1.000000 1.000000
vt 0.000000 1.000000
vt 0.000000 0.000000
vt 1.000000 0.000000
vt 1.000000 1.000000
vt 0.000000 1.000000
vt 0.000000 0.000000
vt 1.000000 0.000000
vt 1.000000 1.000000
vt 0.000000 1.000000
vt 0.000000 0.000000
vt 1.000000 0.000000
vt 0.000000 1.000000
vt 1.000000 0.000000
vt 1.000000 1.000000
vt 0.000000 1.000000
vt 0.000000 0.000000
vt 1.000000 0.000000
vt 1.000000 1.000000
vt 0.000000 1.000000
vt 0.000000 0.000000
vt 1.000000 0.000000
vt 1.000000 1.000000
vt 0.000000 1.000000
vt 0.000000 0.000000
vt 1.000000 0.000000
vt 1.000000 1.000000
vt 0.000000 1.000000
vt 0.000000 0.000000
vt 1.000000 0.000000
vt 1.000000 1.000000
vt 0.000000 1.000000
vt 0.000000 0.000000
vt 1.000000 1.000000
vt 0.000000 1.000000
vt 0.000000 0.000000
vt 1.000000 0.000000
vt 1.000000 1.000000
vt 0.000000 1.000000
vt 0.000000 0.000000
vt 1.000000 0.000000
vt 1.000000 1.000000
vt 0.000000 1.000000
vt 0.000000 0.000000
vt 1.000000 0.000000
vt 1.000000 1.000000
vt 0.000000 1.000000
vt 0.000000 0.000000
vt 1.000000 0.000000
vt 1.000000 1.000000
vt 0.000000 0.000000
vt 1.000000 0.000000
vt 1.000000 1.000000
vt 0.000000 1.000000
vt 0.000000 0.000000
vt 1.000000 0.000000
vt 1.000000 1.000000
vt 1.000000 0.000000
vt 0.000000 0.000000
vt 1.000000 0.000000
vt 0.000000 1.000000
vt 0.000000 0.000000
vt 1.000000 0.000000
vt 1.000000 1.000000
vt 0.000000 1.000000
vt 0.000000 0.000000
vt 1.000000 0.000000
vt 1.000000 1.000000
vt 0.000000 0.000000
vt 1.000000 0.000000
vt 0.000000 1.000000
vt 0.000000 0.000000
vt 0.000000 1.000000
vn -1.0000 0.0000 0.0000
vn 0.0000 -0.0000 1.0000
vn 0.0000 1.0000 0.0000
vn 0.0000 0.0000 -1.0000
vn 1.0000 0.0000 0.0000
vn 0.0000 -1.0000 -0.0000
usemtl wool_red.png
s 1
f 1/1/1 2/2/1 3/3/1 4/4/1
f 2/5/2 5/6/2 6/7/2 3/8/2
f 6/9/3 7/10/3 8/11/3 9/12/3
f 10/13/4 11/14/4 9/15/4 8/16/4
f 5/17/2 12/18/2 7/19/2 6/20/2
f 13/21/5 14/22/5 15/23/5 16/24/5
f 12/25/2 13/26/2 16/27/2 7/28/2
f 6/9/5 9/29/5 17/30/5 18/31/5
f 4/32/1 3/33/1 19/34/1 20/35/1
f 9/36/4 4/37/4 20/38/4 17/39/4
f 3/40/2 6/41/2 18/42/2 19/43/2
f 16/44/5 15/45/5 21/46/5 22/47/5
f 8/48/1 7/10/1 23/49/1 24/50/1
f 15/51/4 8/52/4 24/53/4 21/54/4
f 7/55/2 16/56/2 22/57/2 23/58/2
f 25/59/3 26/60/3 27/61/3 28/62/3
f 20/63/1 19/64/1 25/65/1 28/62/1
f 19/66/2 18/67/2 26/68/2 25/69/2
f 26/70/3 29/71/3 30/72/3 27/73/3
f 17/74/6 24/75/6 23/49/6 18/31/6
f 24/76/4 17/77/4 27/61/4 30/78/4
f 18/79/2 23/80/2 29/81/2 26/82/2
f 29/83/3 31/84/3 32/85/3 30/78/3
f 22/86/5 21/87/5 32/85/5 31/88/5
f 23/89/2 22/90/2 31/91/2 29/92/2
f 4/32/3 9/29/3 33/93/3 34/94/3
f 11/95/5 35/96/5 33/93/5 9/12/5
f 36/97/1 1/98/1 4/99/1 34/94/1
f 8/48/3 15/45/3 37/100/3 38/101/3
f 14/102/5 39/103/5 37/100/5 15/104/5
f 40/105/1 10/106/1 8/11/1 38/101/1
f 28/107/3 27/108/3 41/109/3 42/110/3
f 43/111/6 44/112/6 17/30/6 20/35/6
f 17/74/5 44/112/5 41/109/5 27/73/5
f 43/111/1 20/113/1 28/114/1 42/110/1
f 30/115/3 32/116/3 45/117/3 46/118/3
f 47/119/6 48/120/6 21/46/6 24/50/6
f 21/121/5 48/120/5 45/117/5 32/122/5
f 47/119/1 24/75/1 30/72/1 46/118/1
f 49/123/1 36/124/1 34/125/1 50/126/1
f 51/127/4 49/128/4 50/129/4 52/130/4
f 33/131/3 38/132/3 53/133/3 52/130/3
f 54/134/4 51/135/4 52/136/4 53/137/4
f 35/138/2 40/139/2 38/140/2 33/141/2
f 39/142/5 55/143/5 56/144/5 37/145/5
f 55/146/4 54/147/4 53/133/4 56/148/4
f 33/131/5 52/149/5 57/150/5 44/151/5
f 50/152/1 34/153/1 43/154/1 58/155/1
f 52/156/4 50/157/4 58/158/4 57/159/4
f 34/160/2 33/161/2 44/162/2 43/163/2
f 37/164/5 56/165/5 59/166/5 48/167/5
f 53/168/1 38/132/1 47/169/1 60/170/1
f 56/171/4 53/172/4 60/173/4 59/174/4
f 38/175/2 37/176/2 48/177/2 47/178/2
f 42/179/3 41/180/3 61/181/3 62/182/3
f 58/183/1 43/184/1 42/185/1 62/182/1
f 57/186/4 58/187/4 62/188/4 61/189/4
f 41/190/3 46/191/3 63/192/3 61/189/3
f 57/186/6 60/193/6 47/169/6 44/151/6
f 60/194/4 57/195/4 61/181/4 63/196/4
f 44/197/2 47/198/2 46/199/2 41/200/2
f 46/201/3 45/202/3 64/203/3 63/196/3
f 48/204/5 59/205/5 64/203/5 45/206/5
f 59/207/4 60/193/4 63/192/4 64/208/4
